<svg width="118" height="118" viewBox="0 0 118 118" fill="none" xmlns="http://www.w3.org/2000/svg">
<g clip-path="url(#clip0_1011_127)">
<path d="M88.205 88.205C79.8004 94.6114 69.5664 98.1605 59 98.3333C24.5833 98.3333 4.91663 59 4.91663 59C11.0324 47.6026 19.5149 37.6449 29.795 29.795M48.675 20.8466C52.0593 20.0545 55.5242 19.6585 59 19.6666C93.4166 19.6666 113.083 59 113.083 59C110.099 64.5834 106.539 69.8399 102.463 74.6841M69.4233 69.4233C68.0729 70.8725 66.4445 72.0348 64.6352 72.841C62.8259 73.6472 60.8727 74.0806 58.8922 74.1156C56.9117 74.1505 54.9445 73.7862 53.1079 73.0444C51.2712 72.3025 49.6028 71.1983 48.2022 69.7977C46.8016 68.3971 45.6974 66.7287 44.9555 64.892C44.2137 63.0554 43.8494 61.0882 43.8843 59.1077C43.9193 57.1272 44.3528 55.174 45.1589 53.3647C45.9651 51.5554 47.1275 49.927 48.5766 48.5766" stroke="#383838" stroke-width="10" stroke-linecap="round" stroke-linejoin="round"/>
<path d="M4.91663 4.91675L113.083 113.083" stroke="#383838" stroke-width="10" stroke-linecap="round" stroke-linejoin="round"/>
</g>
<defs>
<clipPath id="clip0_1011_127">
<rect width="118" height="118" fill="white"/>
</clipPath>
</defs>
</svg>
