<svg width="259" height="259" viewBox="0 0 259 259" fill="none" xmlns="http://www.w3.org/2000/svg">
<path d="M32.375 64.75H53.9583H226.625" stroke="#383838" stroke-width="20" stroke-linecap="round" stroke-linejoin="round"/>
<path d="M205.042 64.75V215.833C205.042 221.558 202.768 227.047 198.72 231.095C194.672 235.143 189.183 237.417 183.458 237.417H75.5417C69.8174 237.417 64.3276 235.143 60.2799 231.095C56.2323 227.047 53.9583 221.558 53.9583 215.833V64.75M86.3333 64.75V43.1667C86.3333 37.4424 88.6073 31.9526 92.6549 27.905C96.7026 23.8573 102.192 21.5833 107.917 21.5833H151.083C156.808 21.5833 162.297 23.8573 166.345 27.905C170.393 31.9526 172.667 37.4424 172.667 43.1667V64.75" stroke="#383838" stroke-width="20" stroke-linecap="round" stroke-linejoin="round"/>
<path d="M107.917 118.708V183.458" stroke="#383838" stroke-width="20" stroke-linecap="round" stroke-linejoin="round"/>
<path d="M151.083 118.708V183.458" stroke="#383838" stroke-width="20" stroke-linecap="round" stroke-linejoin="round"/>
</svg>
